<svg width="20" height="22" viewBox="0 0 20 22" fill="none" xmlns="http://www.w3.org/2000/svg">
<path fill-rule="evenodd" clip-rule="evenodd" d="M18.97 5.20156L10.72 0.6875C10.2719 0.439919 9.72808 0.439919 9.28 0.6875L1.03 5.20344C0.550138 5.46599 0.251242 5.96894 0.25 6.51594V15.4822C0.251242 16.0292 0.550138 16.5321 1.03 16.7947L9.28 21.3106C9.72808 21.5582 10.2719 21.5582 10.72 21.3106L18.97 16.7947C19.4499 16.5321 19.7488 16.0292 19.75 15.4822V6.51687C19.7498 5.96887 19.4507 5.4646 18.97 5.20156ZM10 2L17.5319 6.125L14.7409 7.65312L7.20813 3.52812L10 2ZM10 10.25L2.46812 6.125L5.64625 4.385L13.1781 8.51L10 10.25ZM1.75 7.4375L9.25 11.5419V19.5847L1.75 15.4831V7.4375ZM18.25 15.4794L10.75 19.5847V11.5456L13.75 9.90406V13.25C13.75 13.6642 14.0858 14 14.5 14C14.9142 14 15.25 13.6642 15.25 13.25V9.08281L18.25 7.4375V15.4784V15.4794Z" fill="#121417"/>
</svg>
